<svg width="162" height="61" viewBox="0 0 162 61" fill="none" xmlns="http://www.w3.org/2000/svg">
<path d="M112.335 0.118786C113.324 0.118786 114.313 0.258164 115.303 0.536921C116.292 0.815676 117.192 1.29716 118.004 1.98138C118.816 2.6656 119.463 3.62858 119.945 4.87031C120.427 6.08669 120.668 7.63252 120.668 9.50779C120.668 11.0029 120.528 12.2953 120.249 13.385C119.995 14.4747 119.628 15.387 119.146 16.1219C118.689 16.8568 118.156 17.4397 117.548 17.8705L120.82 26.7273H116.33L113.705 19.2389C113.552 19.2642 113.4 19.2769 113.248 19.2769C113.096 19.2769 112.944 19.2769 112.791 19.2769C112.639 19.2769 112.487 19.2769 112.335 19.2769H108.264V26.7273H104.04V0.118786H112.335ZM110.775 15.2856C111.764 15.2856 112.614 15.2223 113.324 15.0956C114.034 14.9689 114.618 14.7155 115.074 14.3353C115.531 13.9299 115.861 13.347 116.064 12.5868C116.292 11.8265 116.406 10.8002 116.406 9.50779C116.406 8.31674 116.292 7.37911 116.064 6.69489C115.861 5.98533 115.531 5.46583 115.074 5.13639C114.618 4.78161 114.034 4.55354 113.324 4.45217C112.614 4.35081 111.764 4.30012 110.775 4.30012H108.264V15.2856H110.775Z" fill="#3573ED"/>
<path d="M139.825 19.657C139.825 21.2789 139.483 22.6473 138.798 23.7623C138.113 24.8774 137.175 25.7263 135.983 26.3092C134.79 26.8667 133.408 27.1454 131.835 27.1454C130.262 27.1454 128.867 26.8667 127.65 26.3092C126.432 25.7263 125.481 24.8774 124.796 23.7623C124.111 22.6473 123.769 21.2789 123.769 19.657V0.118786H127.992V18.9348C127.992 19.7711 128.132 20.4806 128.411 21.0635C128.715 21.6463 129.146 22.0898 129.704 22.3939C130.262 22.698 130.96 22.8501 131.797 22.8501C132.609 22.8501 133.294 22.6853 133.852 22.3559C134.41 22.0011 134.841 21.5323 135.145 20.9494C135.45 20.3413 135.602 19.6444 135.602 18.8588V0.118786H139.825V19.657Z" fill="#3573ED"/>
<path d="M161.814 0.118786V26.7273H157.553L147.241 8.70953V26.7273H143.018V0.118786H147.241L157.553 18.7067V0.118786H161.814Z" fill="#3573ED"/>
<path d="M12.7464 33.9734V38.1547H4.22343V44.8448H9.43614L8.10443 48.8361H4.22343V60.5819H0V33.9734H12.7464Z" fill="#FC4B4E"/>
<path d="M15.5272 41.2717C15.5272 38.6869 16.2502 36.7229 17.696 35.3798C19.1419 34.0114 21.1204 33.3272 23.6317 33.3272C26.1429 33.3272 28.0961 34.0367 29.4912 35.4558C30.8863 36.875 31.5839 38.8262 31.5839 41.3097V53.5116C31.5839 55.0574 31.2542 56.4005 30.5946 57.5409C29.9351 58.6559 28.9966 59.5175 27.779 60.1257C26.5868 60.7086 25.1917 61 23.5936 61C22.097 61 20.74 60.7212 19.5224 60.1637C18.3048 59.6062 17.3282 58.77 16.5926 57.6549C15.8824 56.5399 15.5272 55.1588 15.5272 53.5116V41.2717ZM19.7507 52.7514C19.7507 53.5623 19.8902 54.2718 20.1692 54.88C20.4736 55.4629 20.9048 55.919 21.4629 56.2485C22.0463 56.5526 22.7439 56.7046 23.5556 56.7046C24.3673 56.7046 25.0522 56.5399 25.6102 56.2105C26.1683 55.881 26.5995 55.4122 26.9039 54.804C27.2083 54.1958 27.3605 53.4989 27.3605 52.7133V42.4881C27.3605 41.3984 27.2463 40.5114 27.018 39.8272C26.7897 39.143 26.3966 38.6362 25.8385 38.3067C25.2805 37.952 24.5195 37.7746 23.5556 37.7746C22.6678 37.7746 21.9448 37.9393 21.3868 38.2687C20.8287 38.5982 20.4102 39.1177 20.1312 39.8272C19.8775 40.5114 19.7507 41.3984 19.7507 42.4881V52.7514Z" fill="#FC4B4E"/>
<path d="M43.0738 33.9734C44.0631 33.9734 45.0523 34.1127 46.0416 34.3915C47.0309 34.6702 47.9314 35.1517 48.7431 35.836C49.5548 36.5202 50.2016 37.4831 50.6836 38.7249C51.1655 39.9413 51.4065 41.4871 51.4065 43.3624C51.4065 44.8575 51.267 46.1499 50.988 47.2396C50.7343 48.3293 50.3665 49.2416 49.8846 49.9765C49.428 50.7114 48.8953 51.2942 48.2865 51.725L51.5587 60.5819H47.0689L44.4436 53.0935C44.2914 53.1188 44.1392 53.1315 43.987 53.1315C43.8348 53.1315 43.6826 53.1315 43.5304 53.1315C43.3782 53.1315 43.226 53.1315 43.0738 53.1315H39.0026V60.5819H34.7791V33.9734H43.0738ZM41.5138 49.1402C42.5031 49.1402 43.3528 49.0769 44.0631 48.9501C44.7733 48.8234 45.3567 48.57 45.8133 48.1899C46.2699 47.7844 46.5997 47.2016 46.8026 46.4413C47.0309 45.6811 47.145 44.6548 47.145 43.3624C47.145 42.1713 47.0309 41.2337 46.8026 40.5495C46.5997 39.8399 46.2699 39.3204 45.8133 38.991C45.3567 38.6362 44.7733 38.4081 44.0631 38.3067C43.3528 38.2054 42.5031 38.1547 41.5138 38.1547H39.0026V49.1402H41.5138Z" fill="#FC4B4E"/>
<path d="M58.733 33.9734L64.7067 52.6753L70.7945 33.9734H74.9799V60.5819H70.7945V46.4794L66.3048 60.5819H63.1467L58.733 46.5174V60.5819H54.5096V33.9734H58.733Z" fill="#FC4B4E"/>
<path d="M97.1119 60.5819H92.0895L90.5675 53.5876H84.4416L82.9197 60.5819H78.1636L84.6319 33.9734H90.5295L97.1119 60.5819ZM85.469 49.1402H89.6163L87.5236 39.4091L85.469 49.1402Z" fill="#FC4B4E"/>
<path d="M105.804 38.1927V60.5819H101.619V38.1927H96.0635V33.9734H111.435V38.1927H105.804Z" fill="#FC4B4E"/>
<path d="M114.128 37.9646V33.9734H120.901V60.5819H116.677V38.0407L114.128 37.9646Z" fill="#FC4B4E"/>
<path d="M123.952 41.2717C123.952 38.6869 124.675 36.7229 126.121 35.3798C127.567 34.0114 129.545 33.3272 132.056 33.3272C134.568 33.3272 136.521 34.0367 137.916 35.4558C139.311 36.875 140.009 38.8262 140.009 41.3097V53.5116C140.009 55.0574 139.679 56.4005 139.019 57.5409C138.36 58.6559 137.421 59.5175 136.204 60.1257C135.011 60.7086 133.616 61 132.018 61C130.522 61 129.165 60.7212 127.947 60.1637C126.729 59.6062 125.753 58.77 125.017 57.6549C124.307 56.5399 123.952 55.1588 123.952 53.5116V41.2717ZM128.175 52.7514C128.175 53.5623 128.315 54.2718 128.594 54.88C128.898 55.4629 129.33 55.919 129.888 56.2485C130.471 56.5526 131.169 56.7046 131.98 56.7046C132.792 56.7046 133.477 56.5399 134.035 56.2105C134.593 55.881 135.024 55.4122 135.329 54.804C135.633 54.1958 135.785 53.4989 135.785 52.7133V42.4881C135.785 41.3984 135.671 40.5114 135.443 39.8272C135.214 39.143 134.821 38.6362 134.263 38.3067C133.705 37.952 132.944 37.7746 131.98 37.7746C131.092 37.7746 130.37 37.9393 129.811 38.2687C129.253 38.5982 128.835 39.1177 128.556 39.8272C128.302 40.5114 128.175 41.3984 128.175 42.4881V52.7514Z" fill="#FC4B4E"/>
<path d="M162 33.9734V60.5819H157.739L147.427 42.5641V60.5819H143.204V33.9734H147.427L157.739 52.5613V33.9734H162Z" fill="#FC4B4E"/>
<path d="M75.7269 0H100.697V4.15758H75.7269V0Z" fill="#FFD20B"/>
<path d="M50.7573 7.12728H100.697V11.2849H50.7573V7.12728Z" fill="#FFD20B"/>
<path d="M25.7877 14.8485H100.697V19.0061H25.7877V14.8485Z" fill="#FFD20B"/>
<path d="M0.223538 22.5697H100.697V26.7273H0.223538V22.5697Z" fill="#FFD20B"/>
</svg>
