<svg width="38" height="38" viewBox="0 0 38 38" fill="none" xmlns="http://www.w3.org/2000/svg">
<circle cx="19" cy="19" r="19" fill="#B8CDF7"/>
<path d="M18.5 20.0625C22.3818 20.0625 25.5312 16.9131 25.5312 13.0312C25.5312 9.14941 22.3818 6 18.5 6C14.6182 6 11.4688 9.14941 11.4688 13.0312C11.4688 16.9131 14.6182 20.0625 18.5 20.0625ZM24.75 21.625H22.0596C20.9756 22.123 19.7695 22.4062 18.5 22.4062C17.2305 22.4062 16.0293 22.123 14.9404 21.625H12.25C8.79785 21.625 6 24.4229 6 27.875V28.6562C6 29.9502 7.0498 31 8.34375 31H28.6562C29.9502 31 31 29.9502 31 28.6562V27.875C31 24.4229 28.2021 21.625 24.75 21.625Z" fill="black"/>
</svg>
